<svg id="Layer_1" data-name="Layer 1" xmlns="http://www.w3.org/2000/svg" xmlns:xlink="http://www.w3.org/1999/xlink" viewBox="0 0 222.75 20"><defs><style>.cls-1{fill:url(#linear-gradient);}.cls-2{fill:url(#linear-gradient-2);}.cls-3{fill:url(#linear-gradient-3);}.cls-4{fill:url(#linear-gradient-6);}</style><linearGradient id="linear-gradient" x1="-4.41" y1="11.8" x2="229.12" y2="11.8" gradientTransform="matrix(1, 0, 0, -1, 0, 22)" gradientUnits="userSpaceOnUse"><stop offset="0" stop-color="#2e3192"/><stop offset="1" stop-color="#c1272d"/></linearGradient><linearGradient id="linear-gradient-2" x1="-4.41" y1="12" x2="229.12" y2="12" xlink:href="#linear-gradient"/><linearGradient id="linear-gradient-3" x1="-4.41" y1="12" x2="229.12" y2="12" xlink:href="#linear-gradient"/><linearGradient id="linear-gradient-6" x1="-4.41" y1="11.99" x2="229.12" y2="11.99" xlink:href="#linear-gradient"/></defs><title>Artboard 1</title><path class="cls-1" d="M2.83,19.27A7,7,0,0,1,0,17.17l3-3.52a4.28,4.28,0,0,0,3.32,2,2.23,2.23,0,0,0,1.8-.72,3.11,3.11,0,0,0,.62-2.08V4.59H2.06V.38h12V12.53c0,2.49-.62,4.36-1.88,5.6A7.49,7.49,0,0,1,6.68,20,9.77,9.77,0,0,1,2.83,19.27Z"/><path class="cls-2" d="M31.62,15.88H23.49L22,19.62H16.43L24.92.38h5.36l8.51,19.24H33.13Zm-1.59-4L27.56,5.71l-2.48,6.16Z"/><path class="cls-3" d="M50.11,14.51h-3v5.11H41.7V.38h8.8a10.88,10.88,0,0,1,4.5.87,6.76,6.76,0,0,1,3,2.47A6.81,6.81,0,0,1,59,7.5a6.68,6.68,0,0,1-1,3.64,6.61,6.61,0,0,1-2.78,2.43l4.14,6.05H53.6Zm2.58-9.1a3.73,3.73,0,0,0-2.52-.74h-3V10.3h3a3.73,3.73,0,0,0,2.52-.73,2.54,2.54,0,0,0,.86-2.07A2.63,2.63,0,0,0,52.69,5.41Z"/><path class="cls-2" d="M67.63,18.71A9.63,9.63,0,0,1,62.42,10a9.63,9.63,0,0,1,5.21-8.71,12.31,12.31,0,0,1,11,0A9.58,9.58,0,0,1,83.79,10a9.6,9.6,0,0,1-5.2,8.71,12.31,12.31,0,0,1-11,0Zm8.11-3.9a4.91,4.91,0,0,0,1.87-1.94A5.85,5.85,0,0,0,78.3,10a5.85,5.85,0,0,0-.69-2.87,4.91,4.91,0,0,0-1.87-1.94,5.43,5.43,0,0,0-5.27,0A4.91,4.91,0,0,0,68.6,7.13,5.85,5.85,0,0,0,67.91,10a5.85,5.85,0,0,0,.69,2.87,4.91,4.91,0,0,0,1.87,1.94A5.43,5.43,0,0,0,75.74,14.81Z"/><path class="cls-2" d="M106.32.38V19.62h-4.48L93.35,9.37V19.62H88V.38h4.5L101,10.63V.38Z"/><path class="cls-4" d="M133.79,9.59h4.81v8a12.61,12.61,0,0,1-3.79,1.81,15.2,15.2,0,0,1-4.29.63,11.44,11.44,0,0,1-5.44-1.28,9.52,9.52,0,0,1-3.79-3.55,9.88,9.88,0,0,1-1.37-5.2,9.89,9.89,0,0,1,1.37-5.17,9.46,9.46,0,0,1,3.82-3.55A11.75,11.75,0,0,1,130.63,0a12.14,12.14,0,0,1,4.84.91A9.21,9.21,0,0,1,139,3.52l-3.46,3.13a6.08,6.08,0,0,0-4.67-2.14,5.43,5.43,0,0,0-4,1.49,5.41,5.41,0,0,0-1.51,4,5.74,5.74,0,0,0,.69,2.84,4.94,4.94,0,0,0,2,1.95,5.61,5.61,0,0,0,2.83.7,6.94,6.94,0,0,0,2.94-.63Z"/><path class="cls-2" d="M156.32,15.88h-8.13l-1.51,3.74h-5.55L149.62.38H155l8.52,19.24h-5.66Zm-1.59-4-2.48-6.16-2.47,6.16Z"/><path class="cls-2" d="M166.4.38h5.44V15.3H181v4.32H166.4Z"/><path class="cls-2" d="M184.53.38H190V15.3h9.18v4.32H184.53Z"/><path class="cls-2" d="M206.58,18.71a9.6,9.6,0,0,1-5.2-8.71,9.6,9.6,0,0,1,5.2-8.71,12.31,12.31,0,0,1,11,0A9.63,9.63,0,0,1,222.75,10a9.63,9.63,0,0,1-5.21,8.71,12.31,12.31,0,0,1-11,0Zm8.12-3.9a4.91,4.91,0,0,0,1.87-1.94,5.85,5.85,0,0,0,.69-2.87,5.85,5.85,0,0,0-.69-2.87,4.91,4.91,0,0,0-1.87-1.94,5.45,5.45,0,0,0-5.28,0,5,5,0,0,0-1.86,1.94,5.85,5.85,0,0,0-.69,2.87,5.85,5.85,0,0,0,.69,2.87,5,5,0,0,0,1.86,1.94A5.45,5.45,0,0,0,214.7,14.81Z"/></svg>